<svg width="1500" height="480" viewBox="0 0 1500 480" fill="none" xmlns="http://www.w3.org/2000/svg" role="img" aria-labelledby="title desc">
<title id="title">GoreeWorks Concept 02 — Quad Bloom</title>
<desc id="desc">A four-part abstract GoreeWorks symbol expressing creative variety, motion, and connected services.</desc>
<g transform="translate(88 68)">
  <g transform="translate(170 170)">
    <path d="M0 -132C66 -132 112 -92 112 -30V0H30C-25 0 -62 -37 -62 -88C-62 -112 -42 -132 -18 -132H0Z" fill="#5B2EFF"/>
    <g transform="rotate(90)"><path d="M0 -132C66 -132 112 -92 112 -30V0H30C-25 0 -62 -37 -62 -88C-62 -112 -42 -132 -18 -132H0Z" fill="#FF7A00"/></g>
    <g transform="rotate(180)"><path d="M0 -132C66 -132 112 -92 112 -30V0H30C-25 0 -62 -37 -62 -88C-62 -112 -42 -132 -18 -132H0Z" fill="#00A884"/></g>
    <g transform="rotate(270)"><path d="M0 -132C66 -132 112 -92 112 -30V0H30C-25 0 -62 -37 -62 -88C-62 -112 -42 -132 -18 -132H0Z" fill="#F23D77"/></g>
    <rect x="-38" y="-38" width="76" height="76" rx="20" fill="#FFFFFF"/>
  </g>
</g>
<text x="470" y="300" fill="#18151F" font-family="Avenir Next, Helvetica Neue, Arial, sans-serif" font-size="170" font-weight="700" letter-spacing="-8">GoreeWorks</text>
</svg>